<svg width="32" height="32" viewBox="0 0 32 32" fill="none" xmlns="http://www.w3.org/2000/svg">
<g clip-path="url(#clip0_1731_112)">
<path d="M15.4145 0.0249989C15.3479 0.0312483 15.1361 0.0531211 14.9453 0.0687446C10.547 0.47808 6.42724 2.92784 3.81792 6.6931C2.36494 8.78664 1.43563 11.1614 1.0845 13.6768C0.960387 14.5548 0.945251 14.8142 0.945251 16.0047C0.945251 17.1952 0.960387 17.4545 1.0845 18.3326C1.92601 24.3351 6.06399 29.3784 11.6761 31.2469C12.6811 31.5813 13.7406 31.8094 14.9453 31.9469C15.4145 32 17.4427 32 17.9119 31.9469C19.9914 31.7094 21.7532 31.1782 23.4907 30.2627C23.7571 30.1221 23.8085 30.0846 23.7722 30.0533C23.748 30.0346 22.6129 28.4628 21.2507 26.563L18.7746 23.1102L15.6718 18.3701C13.9646 15.7641 12.56 13.633 12.5479 13.633C12.5358 13.6299 12.5237 15.736 12.5177 18.3076C12.5086 22.8103 12.5055 22.9915 12.4511 23.0977C12.3724 23.2509 12.3118 23.3133 12.1847 23.3821C12.0878 23.4321 12.0031 23.4415 11.546 23.4415H11.0223L10.883 23.3508C10.7922 23.2915 10.7256 23.2134 10.6802 23.1227L10.6167 22.9821L10.6227 16.7171L10.6318 10.449L10.7256 10.3271C10.7741 10.2615 10.877 10.1771 10.9496 10.1365C11.0738 10.074 11.1222 10.0678 11.6459 10.0678C12.2634 10.0678 12.3663 10.0928 12.5267 10.274C12.5721 10.324 14.2522 12.9362 16.2621 16.0828C18.2721 19.2294 21.0206 23.5258 22.3707 25.635L24.8226 29.469L24.9467 29.3846C26.0455 28.6472 27.2079 27.5973 28.1281 26.5037C30.0866 24.182 31.3489 21.351 31.7727 18.3326C31.8968 17.4545 31.912 17.1952 31.912 16.0047C31.912 14.8142 31.8968 14.5548 31.7727 13.6768C30.9312 7.67425 26.7932 2.63099 21.1811 0.762427C20.1912 0.431209 19.1378 0.203106 17.9573 0.0656199C17.6667 0.034373 15.6658 1.33924e-06 15.4145 0.0249989ZM21.7532 9.6928C21.8985 9.7678 22.0165 9.91153 22.0589 10.0615C22.0831 10.1428 22.0892 11.8801 22.0831 15.7953L22.074 21.4135L21.1145 19.8949L20.1519 18.3763V14.2924C20.1519 11.652 20.164 10.1678 20.1821 10.0959C20.2306 9.92091 20.3365 9.78342 20.4818 9.70218C20.6059 9.63656 20.6513 9.63031 21.1266 9.63031C21.5746 9.63031 21.6533 9.63656 21.7532 9.6928Z" fill="white"/>
<path d="M24.6712 29.5377C24.5653 29.6065 24.532 29.6534 24.6258 29.6002C24.6924 29.5596 24.8014 29.4752 24.7832 29.4721C24.7742 29.4721 24.7227 29.5034 24.6712 29.5377ZM24.4624 29.6784C24.4079 29.7221 24.4079 29.7252 24.4745 29.6909C24.5108 29.6721 24.5411 29.6502 24.5411 29.644C24.5411 29.619 24.5259 29.6252 24.4624 29.6784ZM24.311 29.7721C24.2565 29.8158 24.2565 29.819 24.3231 29.7846C24.3595 29.7658 24.3897 29.744 24.3897 29.7377C24.3897 29.7127 24.3746 29.719 24.311 29.7721ZM24.1597 29.8658C24.1052 29.9096 24.1052 29.9127 24.1718 29.8783C24.2081 29.8596 24.2384 29.8377 24.2384 29.8315C24.2384 29.8065 24.2232 29.8127 24.1597 29.8658ZM23.9296 29.9908C23.8146 30.0533 23.8206 30.0783 23.9357 30.0189C23.9871 29.9908 24.0265 29.9627 24.0265 29.9564C24.0265 29.9346 24.0235 29.9377 23.9296 29.9908Z" fill="white"/>
</g>
<defs>
<clipPath id="clip0_1731_112">
<rect width="31" height="32" fill="white" transform="translate(0.928589)"/>
</clipPath>
</defs>
</svg>
